<?xml version="1.0" standalone="no"?><!DOCTYPE svg PUBLIC "-//W3C//DTD SVG 1.1//EN" "http://www.w3.org/Graphics/SVG/1.1/DTD/svg11.dtd"><svg t="1602591143145" class="icon" viewBox="0 0 1024 1024" version="1.1" xmlns="http://www.w3.org/2000/svg" p-id="2267" xmlns:xlink="http://www.w3.org/1999/xlink" width="200" height="200"><defs><style type="text/css"></style></defs><path d="M780.982272 464.956416a66.055168 66.055168 0 0 0 16.299008-67.411968c-7.749632-23.74656-28.224512-41.090048-52.907008-44.831744L628.10112 336.160768a66.015232 66.015232 0 0 1-49.87392-35.95776l-49.671168-99.80416c-0.063488-0.185344-0.105472-0.385024-0.181248-0.56832l-2.489344-4.958208a68.64896 68.64896 0 0 0-5.04832-8.659968c-1.020928-1.376256-2.13504-2.56512-3.134464-3.86048-1.019904-1.281024-1.841152-2.484224-2.859008-3.581952a64.07168 64.07168 0 0 0-14.345216-11.224064 63.83616 63.83616 0 0 0-8.009728-3.954688 66.566144 66.566144 0 0 0-17.10592-4.508672 68.10624 68.10624 0 0 0-17.666048 0 64.929792 64.929792 0 0 0-43.693056 25.93792 67.869696 67.869696 0 0 0-2.8416 4.230144 68.655104 68.655104 0 0 0-3.689472 6.347776l-17.10592 34.953216-34.582528 70.388736a62.958592 62.958592 0 0 1-3.412992 6.054912l-1.466368 2.299904-2.390016 3.134464a66.3552 66.3552 0 0 1-5.98016 6.716416c32.03584 32.69632 80.65024 42.769408 123.021312 25.491456 42.385408-17.278976 70.110208-58.47552 70.15936-104.23296l0.190464-0.186368c-0.01536-11.158528-1.774592-22.221824-5.040128-32.852992 15.173632 48.111616-3.477504 100.926464-46.430208 128.56832-45.149184 29.06112-104.537088 22.226944-141.901824-16.324608a66.086912 66.086912 0 0 1-36.342784 18.402304l-116.173824 16.551936a66.019328 66.019328 0 0 0-53.093376 45.09696c-7.692288 23.902208-1.16224 50.093056 16.845824 67.59936l84.360192 81.677312a66.062336 66.062336 0 0 1 19.132416 58.409984L237.869056 723.26144a66.02752 66.02752 0 0 0 26.708992 64.14848 66.033664 66.033664 0 0 0 69.328896 4.75136l103.849984-55.200768a66.105344 66.105344 0 0 1 61.449216 0l104.142848 54.368256c22.273024 11.608064 49.215488 9.568256 69.497856-5.260288a66.056192 66.056192 0 0 0 26.068992-64.65024l-20.242432-115.723264a66.056192 66.056192 0 0 1 18.402304-58.504192l83.90656-82.234368z" fill="#FEC744" opacity=".4" p-id="2268"></path><path d="M839.140352 406.86592l-116.2752-16.553984c-21.535744-3.04128-40.178688-16.500736-49.871872-35.960832l-49.854464-100.186112c19.60448 49.988608 1.2288 106.87488-43.922432 135.922688-45.151232 29.056-104.532992 22.2208-141.89568-16.328704a66.06336 66.06336 0 0 1-36.343808 18.402304l-116.170752 16.55296a66.00704 66.00704 0 0 0-53.092352 45.095936c-7.694336 23.90528-1.163264 50.09408 16.843776 67.598336l84.361216 81.67936a66.056192 66.056192 0 0 1 19.129344 58.406912l-19.407872 115.918848c-3.98336 24.710144 6.355968 49.552384 26.703872 64.14848 20.347904 14.590976 47.186944 16.436224 69.331968 4.747264l103.851008-55.196672a66.085888 66.085888 0 0 1 61.451264 0l104.136704 54.363136a66.034688 66.034688 0 0 0 69.500928-5.262336c20.283392-14.831616 30.38208-39.899136 26.07104-64.648192l-20.243456-115.721216a66.06336 66.06336 0 0 1 18.404352-58.503168l83.897344-82.234368c17.748992-17.583104 24.049664-43.66848 16.3072-67.411968-7.752704-23.743488-28.228608-41.086976-52.912128-44.828672zM562.151424 678.06208c-39.135232-0.052224-70.834176-31.797248-70.834176-70.928384 0-9.11872 7.391232-16.49664 16.512-16.49664 9.12384 0 16.513024 7.373824 16.513024 16.49664 0 20.888576 16.934912 37.8112 37.810176 37.8112 20.882432 0 37.81632-16.9216 37.81632-37.8112a16.536576 16.536576 0 0 1 8.246272-14.303232 16.571392 16.571392 0 0 1 16.513024 0 16.512 16.512 0 0 1 8.265728 14.303232c-0.006144 39.13216-31.710208 70.87616-70.842368 70.928384z" fill="#FFBA00" p-id="2269"></path><path d="M620.65152 249.023488a69.554176 69.554176 0 0 0-5.047296-8.660992c-1.016832-1.371136-2.130944-2.562048-3.13856-3.858432-1.01376-1.281024-1.835008-2.482176-2.853888-3.581952a64.12288 64.12288 0 0 0-14.347264-11.224064 64.402432 64.402432 0 0 0-8.014848-3.955712 66.64192 66.64192 0 0 0-17.103872-4.507648 67.992576 67.992576 0 0 0-17.662976 0 64.918528 64.918528 0 0 0-43.69408 25.939968 68.795392 68.795392 0 0 0-2.8416 4.231168c-1.34656 2.048-2.578432 4.17792-3.687424 6.347776l-17.106944 34.953216-34.584576 70.388736a63.300608 63.300608 0 0 1-3.410944 6.055936l-1.466368 2.299904-2.393088 3.132416a66.953216 66.953216 0 0 1-5.976064 6.71744c32.034816 32.694272 80.643072 42.771456 123.020288 25.489408 42.387456-17.281024 70.11328-58.474496 70.163456-104.231936l0.182272-0.18432a112.489472 112.489472 0 0 0-7.553024-40.39168l-2.4832-4.959232z" fill="#FEC744" p-id="2270"></path></svg>