<?xml version="1.0" standalone="no"?><!DOCTYPE svg PUBLIC "-//W3C//DTD SVG 1.1//EN" "http://www.w3.org/Graphics/SVG/1.1/DTD/svg11.dtd"><svg class="icon" width="200px" height="200.00px" viewBox="0 0 1024 1024" version="1.1" xmlns="http://www.w3.org/2000/svg"><path d="M1003.2 462.4C861.6 318.4 720 176 578.4 32c-3.2-4-28.8-30.4-69.6-30.4h-2.4c-31.2 0.8-55.2 20-68 31.2C387.2 77.6 231.2 240 25.6 463.2 3.2 489.6-5.6 521.6 4.8 544c5.6 12.8 16 21.6 16 21.6 7.2 6.4 16 11.2 31.2 15.2 8 1.6 30.4 8 48 29.6 16 19.2 20 40 20 48v262.4c0 99.2 104 100.8 104 100.8h138.4c38.4 0 68.8-29.6 68.8-67.2v-288c0-25.6 26.4-25.6 26.4-25.6h104s26.4 0.8 26.4 25.6v288c0 36.8 31.2 67.2 68.8 67.2h138.4c106.4 0 104-100.8 104-100.8v-288c0.8-8 5.6-24 19.2-38.4 21.6-22.4 50.4-24 57.6-24h0.8c10.4-3.2 28-11.2 36.8-27.2 13.6-26.4 8.8-61.6-10.4-80.8z m-59.2 37.6c-2.4 10.4-9.6 19.2-19.2 23.2-18.4 7.2-33.6 17.6-46.4 31.2-17.6 18.4-29.6 42.4-33.6 67.2l-0.8 4v292.8c0 3.2-0.8 6.4-1.6 8.8-2.4 12.8-6.4 19.2-8.8 23.2-3.2 4-7.2 7.2-11.2 9.6-2.4 1.6-10.4 4.8-28 4.8H673.6c-17.6 0-32-14.4-32-32V665.6c0-56.8-47.2-79.2-79.2-80.8H456.8c-8 0-36 1.6-58.4 24-14.4 14.4-22.4 35.2-22.4 56.8v267.2c0 17.6-14.4 32-32 32H223.2c-4 0-7.2-0.8-10.4-1.6-8.8-1.6-20-5.6-28-13.6-2.4-2.4-4.8-5.6-6.4-8-3.2-6.4-4.8-13.6-4.8-22.4V652c-3.2-30.4-14.4-56.8-32.8-78.4-13.6-16-31.2-29.6-50.4-38.4-9.6-4-16-12.8-17.6-23.2-2.4-10.4 0.8-20 8-28C291.2 256 432 112 474.4 74.4c9.6-8.8 16.8-13.6 24.8-16.8 3.2-0.8 6.4-1.6 10.4-1.6 15.2 0 25.6 9.6 28.8 12l0.8 0.8 0.8 0.8L936 471.2c7.2 8 10.4 18.4 8 28.8z" fill="#d4237a" /></svg>